<?xml version="1.0" encoding="UTF-8"?>
<svg version="1.1" xmlns="http://www.w3.org/2000/svg" width="505" height="510">
<path d="M0 0 C166.65 0 333.3 0 505 0 C505 168.3 505 336.6 505 510 C338.35 510 171.7 510 0 510 C0 341.7 0 173.4 0 0 Z " fill="#FDFDFD" transform="translate(0,0)"/>
<path d="M0 0 C1.22783203 -0.03867187 1.22783203 -0.03867187 2.48046875 -0.078125 C5.37949254 0.32977784 6.71783494 1.23098875 8.8125 3.25 C9.40192761 6.71288721 9.27654704 8.4906503 7.4375 11.5 C4.80439969 13.25540021 3.46220703 13.64055523 0.421875 14.1796875 C-5.61863802 15.31467098 -11.58453252 16.6999344 -17.5625 18.125 C-18.60921875 18.36863281 -19.6559375 18.61226562 -20.734375 18.86328125 C-31.88377952 21.51986776 -42.44022212 25.1662408 -52.9375 29.75 C-53.81792969 30.12769531 -54.69835937 30.50539063 -55.60546875 30.89453125 C-89.38687772 45.50135147 -121.08843307 69.93866441 -142.1875 100.25 C-142.58839844 100.8171875 -142.98929688 101.384375 -143.40234375 101.96875 C-157.62743977 122.17636303 -168.09485884 143.96776798 -176.1875 167.25 C-176.579375 168.35859375 -176.97125 169.4671875 -177.375 170.609375 C-179.54063525 177.1401188 -180.99689151 183.75651446 -182.3125 190.5 C-182.47129639 191.30872559 -182.63009277 192.11745117 -182.79370117 192.95068359 C-185.40236379 207.01632895 -186.52231629 220.8758198 -186.44824219 235.16357422 C-186.43741512 237.64444888 -186.44827262 240.12461425 -186.4609375 242.60546875 C-186.46768627 251.0730611 -185.98944631 258.9456232 -184.1875 267.25 C-183.98417272 269.16312491 -183.80676702 271.07980098 -183.6875 273 C-183.33962771 277.314837 -182.46955809 281.10216499 -181.1875 285.25 C-180.90063752 286.72425526 -180.6272276 288.20115749 -180.36328125 289.6796875 C-169.87320389 342.80591914 -133.55545625 393.16899156 -89 423.25 C-63.5984048 439.96201252 -37.47421041 451.18523802 -7.625 457.125 C-6.55483643 457.3405957 -5.48467285 457.55619141 -4.38208008 457.77832031 C35.92516389 465.34710758 83.01908292 445.20663567 116.1015625 423.046875 C135.53866617 409.58786387 152.83865359 394.38568941 166.8125 375.25 C167.44019287 374.40477783 167.44019287 374.40477783 168.08056641 373.54248047 C191.34548116 341.89021447 203.01570409 299.9875367 198.4140625 260.86230469 C196.41789538 247.8603469 193.26719749 235.23783087 187.8125 223.25 C187.35786377 222.24767334 187.35786377 222.24767334 186.89404297 221.22509766 C180.26732601 206.87001837 172.03738236 194.47488236 160.8125 183.25 C161.12703125 183.88164062 161.4415625 184.51328125 161.765625 185.1640625 C169.85795051 202.07994775 172.21956559 219.24473953 172.125 237.875 C172.12417419 238.56711578 172.12334839 239.25923157 172.12249756 239.97232056 C172.0866618 253.07896529 171.98162058 267.00952246 166.8125 279.25 C166.36937395 281.01439823 165.95447737 282.78603847 165.5625 284.5625 C160.94476272 303.21542892 152.33124394 320.89167475 140.8125 336.25 C139.72715568 337.85280676 138.64389437 339.45702561 137.5625 341.0625 C119.78563284 366.31194407 96.13933813 385.6622458 69.375 400.6875 C68.6418457 401.1007251 67.90869141 401.5139502 67.15332031 401.93969727 C62.48189461 404.50728347 57.8346817 406.46421902 52.8125 408.25 C51.31020132 408.86945433 49.80984179 409.49365813 48.3125 410.125 C30.39783957 417.25819306 10.68012557 422.2929077 -8.6640625 422.48828125 C-9.46338196 422.4980751 -10.26270142 422.50786896 -11.08624268 422.51795959 C-44.66498105 422.84486143 -44.66498105 422.84486143 -60.1875 418.25 C-61.29327393 417.92854004 -61.29327393 417.92854004 -62.42138672 417.60058594 C-79.61414967 412.43033943 -106.00592313 402.52236531 -116.1875 387.25 C-116 383.6875 -116 383.6875 -115.1875 380.25 C-111.63328838 377.88052558 -110.37841296 377.72866662 -106.1875 378.25 C-103.74985443 379.65306344 -101.65690229 381.00636654 -99.4375 382.6875 C-98.29740339 383.52025513 -97.15680059 384.35231782 -96.015625 385.18359375 C-95.08234375 385.86550781 -94.1490625 386.54742187 -93.1875 387.25 C-92.5275 387.58 -91.8675 387.91 -91.1875 388.25 C-91.81099358 385.72878568 -92.43625361 383.20803069 -93.0625 380.6875 C-93.32353516 379.63079102 -93.32353516 379.63079102 -93.58984375 378.55273438 C-93.76386719 377.85341797 -93.93789062 377.15410156 -94.1171875 376.43359375 C-94.2925 375.72710693 -94.4678125 375.02062012 -94.6484375 374.29272461 C-95.1379133 372.43790394 -95.71659952 370.60720148 -96.3046875 368.78125 C-97.18591104 365.25635583 -97.37828702 362.24438011 -97.41162109 358.63964844 C-97.41464773 348.91815589 -97.41464773 348.91815589 -102.1953125 340.78125 C-107.70798433 336.5440591 -113.79076155 333.73197509 -120.25 331.25 C-135.22930847 325.42340285 -146.59082913 314.63595838 -155.1875 301.25 C-155.66832031 300.51265625 -156.14914063 299.7753125 -156.64453125 299.015625 C-166.95097079 281.95239578 -168.75658187 258.32314233 -164.94140625 238.98046875 C-163.59480818 234.10341148 -161.54993694 229.71091444 -159.1875 225.25 C-158.76726562 224.44046875 -158.34703125 223.6309375 -157.9140625 222.796875 C-146.4293993 202.2174207 -127.15570424 187.80319137 -104.625 181.20703125 C-84.2676727 176.53449815 -63.21485969 178.31572978 -45.1875 189.25 C-41.64901956 191.71724184 -38.39605614 194.37037857 -35.1875 197.25 C-34.55328125 197.77980469 -33.9190625 198.30960938 -33.265625 198.85546875 C-26.09346166 205.28185404 -21.98118751 214.12932398 -19.37988281 223.26269531 C-17.3683781 230.65808627 -17.3683781 230.65808627 -11.8125 235.5 C-10.29133436 236.13487714 -8.74883085 236.72154956 -7.1875 237.25 C-0.34108067 240.01962899 -0.34108067 240.01962899 1.8125 243.25 C2.03721402 245.75029901 2.18517993 248.18352468 2.25 250.6875 C2.12996195 255.73370834 2.12996195 255.73370834 4.30859375 259.97827148 C6.46208331 263.23122933 6.29925658 266.38611719 6.31640625 270.1640625 C6.32639145 270.93374359 6.33637665 271.70342468 6.34666443 272.49642944 C6.36183248 274.12533206 6.36889062 275.75432762 6.3684082 277.38330078 C6.37492591 279.84699476 6.42928514 282.30655819 6.48632812 284.76953125 C6.58567214 294.14165777 5.94237774 300.69300224 -0.1875 308.25 C-0.8475 309.24 -1.5075 310.23 -2.1875 311.25 C-1.16269531 311.23646484 -1.16269531 311.23646484 -0.1171875 311.22265625 C22.61938931 311.8913791 45.32080013 323.2795425 62.8125 337.25 C63.58980469 337.8378125 64.36710937 338.425625 65.16796875 339.03125 C71.243244 343.70911283 76.81480778 348.87916169 82.37207031 354.15087891 C86.41595006 357.98402735 90.55551988 361.65424529 94.8125 365.25 C103.81237733 358.43245765 111.57858826 350.89937667 118.8125 342.25 C119.42077637 341.52458008 120.02905273 340.79916016 120.65576172 340.05175781 C127.81454997 331.27743295 133.44940548 323.51211008 132.81640625 311.82714844 C131.37701507 298.23089925 126.41055229 281.22139375 115.5 272.375 C111.82549616 270.8368356 109.68175552 271.38429472 105.8125 272.25 C102.63486808 274.07205621 102.63486808 274.07205621 99.625 276.4375 C88.59117551 284.5105199 76.85159452 290.98641432 62.8125 289.25 C56.87059345 287.20994542 53.30750509 283.01603636 50.046875 277.80078125 C48.29164977 274.17368607 47.46313214 270.48720502 46.74609375 266.53515625 C46.00792905 264.02228283 46.00792905 264.02228283 43.4140625 263.01171875 C42.55554688 262.76035156 41.69703125 262.50898438 40.8125 262.25 C35.7449663 260.1816189 33.39417902 258.115472 30.8125 253.25 C30.8125 251.93 30.8125 250.61 30.8125 249.25 C30.090625 249.188125 29.36875 249.12625 28.625 249.0625 C24.67860778 247.92243114 23.20624609 246.60124453 20.8125 243.25 C20.39954413 239.87408575 20.5169459 236.63245247 20.8125 233.25 C19.79929688 233.14042969 18.78609375 233.03085938 17.7421875 232.91796875 C16.39055539 232.75840107 15.03899657 232.59821167 13.6875 232.4375 C12.68976563 232.33211914 12.68976563 232.33211914 11.671875 232.22460938 C5.91566606 231.51919161 1.54019757 230.12167236 -2.4375 225.8125 C-5.64826837 221.11101774 -6.67573553 217.98480931 -6.1875 212.25 C-5.49109487 208.67353431 -4.58120532 205.15651396 -3.6875 201.625 C-0.70745404 189.08272249 0.88884679 178.151753 -5.1875 166.25 C-6.79621656 163.80637991 -8.50800835 161.46737451 -10.25 159.1171875 C-15.84100102 150.84340776 -20.82959801 140.98027556 -23.1875 131.25 C-23.46335938 130.15300781 -23.73921875 129.05601562 -24.0234375 127.92578125 C-27.5774665 111.80222767 -27.22720459 95.51120074 -23.84375 79.390625 C-23.11932079 76.45845642 -23.11932079 76.45845642 -23.1875 74.25 C-31.36454906 87.55133315 -36.77975676 98.56492758 -36.625 114.5 C-36.61255249 116.1547937 -36.61255249 116.1547937 -36.59985352 117.84301758 C-36.19279664 137.52515897 -27.60497584 153.7805971 -15.125 168.71875 C-10.28394847 174.57486072 -10.28394847 174.57486072 -9.6875 178.75 C-10.1875 181.25 -10.1875 181.25 -11.1875 182.25 C-19.87881247 181.87812233 -24.59370315 176.24776212 -30.1875 170.25 C-46.39603823 151.83690015 -52.54895002 128.42225824 -51.1875 104.25 C-48.7757038 83.14125161 -37.43032555 67.33684485 -23.1875 52.25 C-22.61515625 51.63640625 -22.0428125 51.0228125 -21.453125 50.390625 C-16.93303432 45.69834039 -11.92690117 41.66317019 -6.84619141 37.59667969 C-5.02787305 36.12040002 -3.23812672 34.61332853 -1.44921875 33.1015625 C19.48624551 15.52464611 42.37592821 4.38999764 70.20410156 4.78344727 C72.44410863 4.81258597 74.68175576 4.80395441 76.921875 4.79101562 C86.22775682 4.80397042 94.76848899 5.88045497 103.8125 8.25 C105.15127197 8.58632446 105.15127197 8.58632446 106.51708984 8.92944336 C117.67467053 11.83604926 127.89014787 15.73952307 138.00146484 21.26513672 C139.74439251 22.21296231 141.50671043 23.12486346 143.26953125 24.03515625 C198.9012267 53.0058731 238.33018751 106.59921174 257.8125 165.25 C258.94243843 168.89195031 259.92696398 172.54148249 260.8125 176.25 C261.05613281 177.25417969 261.29976563 178.25835937 261.55078125 179.29296875 C263.96213456 189.84109376 265.41240634 200.5279666 266.8125 211.25 C266.98523438 212.51537598 267.15796875 213.78075195 267.3359375 215.08447266 C272.0918434 253.4865211 264.06500753 293.69153059 249.8125 329.25 C249.55952148 329.90419922 249.30654297 330.55839844 249.04589844 331.23242188 C235.18179442 366.92472655 209.11897267 400.85961981 178.8125 424.25 C178.19826172 424.72469727 177.58402344 425.19939453 176.95117188 425.68847656 C166.19908094 433.96537941 155.3250002 441.51201482 143.3203125 447.890625 C141.66244129 448.78928416 140.03028891 449.73727904 138.4296875 450.734375 C132.47826027 454.18087316 125.87959019 456.45413465 119.49707031 458.98022461 C116.744386 460.07142414 113.9997844 461.16837063 111.28515625 462.3515625 C102.79456969 466.02236091 93.77111755 468.05441067 84.8125 470.25 C83.60078125 470.55164063 82.3890625 470.85328125 81.140625 471.1640625 C65.12169273 474.88677211 48.84801463 475.60392897 32.45922852 475.56567383 C29.61631659 475.56249028 26.77442701 475.58618369 23.93164062 475.61132812 C10.22038084 475.65870102 -1.97215482 474.04836274 -15.1875 470.25 C-16.99525761 469.94913565 -18.80815498 469.67746066 -20.625 469.4375 C-48.62230596 464.89270808 -76.37264914 450.64499968 -99.1875 434.25 C-100.22003906 433.51136719 -101.25257812 432.77273438 -102.31640625 432.01171875 C-119.93929332 419.07601416 -137.31261751 404.01988731 -150.1875 386.25 C-151.18820684 384.91491821 -152.18957396 383.58033122 -153.19140625 382.24609375 C-160.59200044 372.29420777 -167.15482363 362.07895533 -173.1875 351.25 C-173.55214355 350.6096582 -173.91678711 349.96931641 -174.29248047 349.30957031 C-182.93203408 334.12679661 -188.19407974 317.93242235 -193.1875 301.25 C-193.51427734 300.17403564 -193.84105469 299.09807129 -194.17773438 297.98950195 C-210.91157834 241.50498813 -202.08917049 174.69429971 -174.26464844 123.21240234 C-156.41712577 90.69690207 -132.83818868 61.56103891 -102.1875 40.25 C-101.54087402 39.79592773 -100.89424805 39.34185547 -100.22802734 38.87402344 C-72.07009323 19.22102173 -35.12208632 0.6700557 0 0 Z " fill="#060606" transform="translate(224.1875,21.75)"/>
<path d="M0 0 C13.37362804 -0.44601286 25.62878244 -0.06330648 38.40283203 4.09863281 C39.39887451 4.42009277 39.39887451 4.42009277 40.41503906 4.74804688 C91.76137898 21.7767389 136.26480668 63.12264889 160.52783203 110.97363281 C163.46022174 116.86628003 165.9881944 122.83069438 168.19970703 129.03613281 C169.13267135 131.41095107 170.12529135 133.50090625 171.31689453 135.73925781 C173.9378018 140.88816705 175.45085229 146.30827035 177.02783203 151.84863281 C177.32689453 152.85667969 177.62595703 153.86472656 177.93408203 154.90332031 C179.70527098 161.03194756 181.00570576 167.09821038 181.97802734 173.40185547 C182.50943819 176.77539811 183.23066215 180.07627006 183.96533203 183.41113281 C185.4792294 190.98061964 186.18734242 198.39112063 186.40283203 206.09863281 C186.43006348 206.95038086 186.45729492 207.80212891 186.48535156 208.6796875 C187.10140046 230.78770629 185.06273229 252.68922476 179.40283203 274.09863281 C179.22526367 274.78650879 179.04769531 275.47438477 178.86474609 276.18310547 C174.20048721 293.98793685 167.04385125 310.87830435 158.40283203 327.09863281 C157.81244141 328.23171875 157.22205078 329.36480469 156.61376953 330.53222656 C142.59818928 356.32685829 121.49405446 381.24417551 97.40283203 398.09863281 C96.32610659 398.8999631 95.25196536 399.70477515 94.18017578 400.51269531 C85.71171682 406.83453271 76.79907467 411.99999182 67.48486328 416.97314453 C65.62882702 417.9764662 63.79528414 419.02114609 61.96533203 420.07128906 C54.08275346 424.55450562 46.01947174 427.58688753 37.43554688 430.39746094 C35.28463114 431.13940545 33.1889833 431.98327197 31.07861328 432.83300781 C27.40283203 434.09863281 27.40283203 434.09863281 24.40283203 433.09863281 C25.50240234 432.51855469 26.60197266 431.93847656 27.73486328 431.34082031 C30.81072488 429.71741015 33.88293816 428.08729789 36.95361328 426.45410156 C39.42061897 425.14294041 41.89150768 423.85077242 44.38330078 422.58691406 C58.91722499 415.08335319 73.37713966 404.56747894 84.71142578 392.78613281 C86.42410388 391.07741009 88.22148324 389.57112155 90.09033203 388.03613281 C121.60470872 360.65080741 142.10018907 315.79603777 145.2578125 274.47705078 C146.68981744 250.99120542 144.5756817 228.22512825 136.40283203 206.09863281 C135.94580078 204.7952474 135.48876953 203.49186198 135.03173828 202.18847656 C122.85690669 169.38885943 97.49833905 144.11844804 67.52783203 127.03613281 C66.5897168 126.50004395 65.65160156 125.96395508 64.68505859 125.41162109 C59.32069219 122.44243201 54.00012438 120.08345673 48.203125 118.09545898 C45.27293725 117.0523939 42.44453639 115.85709443 39.59033203 114.62207031 C32.99730641 111.84169965 26.25228825 109.77214541 19.40283203 107.72363281 C2.28923965 102.51271946 -14.6349183 97.27307209 -30.59716797 89.09863281 C-32.1653125 88.30199219 -32.1653125 88.30199219 -33.76513672 87.48925781 C-47.95106259 79.78151025 -61.00797177 67.40943121 -66.74169922 52.10644531 C-68.81463107 44.81805479 -68.51703449 39.21338787 -65.09716797 32.41113281 C-55.7386268 17.18733082 -37.62142937 6.97855733 -20.65966797 2.34863281 C-13.74616423 0.79375332 -7.06940361 0.26847519 0 0 Z " fill="#FCFCFC" transform="translate(291.59716796875,40.9013671875)"/>
<path d="M0 0 C8.83734218 7.55996823 12.34467282 14.64189849 16.08984375 25.5390625 C18.31018262 31.82635872 20.35337186 37.28710678 26.2734375 40.890625 C29.56454453 42.34659862 32.89330155 43.65671129 36.2734375 44.890625 C36.32951172 46.08558594 36.32951172 46.08558594 36.38671875 47.3046875 C36.45246094 48.36429687 36.51820313 49.42390625 36.5859375 50.515625 C36.67294922 52.08183594 36.67294922 52.08183594 36.76171875 53.6796875 C37.10056281 56.93744296 37.10056281 56.93744296 38.78051758 59.6965332 C40.40340791 63.16869579 40.6598176 65.40177473 40.671875 69.20703125 C40.67574219 70.38330078 40.67960938 71.55957031 40.68359375 72.77148438 C40.66619141 74.59389648 40.66619141 74.59389648 40.6484375 76.453125 C40.66003906 77.67193359 40.67164063 78.89074219 40.68359375 80.14648438 C40.67972656 81.32146484 40.67585937 82.49644531 40.671875 83.70703125 C40.66849121 84.77381104 40.66510742 85.84059082 40.66162109 86.93969727 C39.86311464 93.00985293 36.04023417 96.3578392 31.58203125 100.12890625 C27.0061342 103.62083446 21.99509611 106.47393242 16.89453125 109.12890625 C14.81968018 110.26840407 13.02153069 111.29315081 11.2734375 112.890625 C10.13865263 116.56008126 10.13865263 116.56008126 10.2734375 119.890625 C13.34317822 121.70741032 15.19168395 122.08436078 18.7109375 121.578125 C19.45214844 121.47886719 20.19335938 121.37960937 20.95703125 121.27734375 C22.50983459 121.01810677 24.05538708 120.71129086 25.58984375 120.359375 C40.22511116 117.80299641 55.58629869 120.70144556 69.2734375 125.890625 C70.72169922 126.43009766 70.72169922 126.43009766 72.19921875 126.98046875 C92.8527256 135.1050933 109.5275055 148.77499801 124.87109375 164.53125 C126.36810581 166.04887069 126.36810581 166.04887069 128.7109375 167.640625 C129.2265625 168.053125 129.7421875 168.465625 130.2734375 168.890625 C130.2734375 169.880625 130.2734375 170.870625 130.2734375 171.890625 C126.30637368 175.05057027 121.6949413 177.41734041 117.2734375 179.890625 C116.42104492 180.36806152 115.56865234 180.84549805 114.69042969 181.33740234 C102.21972987 188.24577415 89.9967761 194.01178611 76.2734375 197.890625 C74.40365234 198.45330078 74.40365234 198.45330078 72.49609375 199.02734375 C47.81833177 206.11199473 13.07880639 211.03119109 -10.53515625 198.38671875 C-21.91517067 191.48459332 -29.55623656 182.93314797 -33.28955078 169.9296875 C-34.70864764 163.98914553 -35.49201522 157.95384113 -36.203125 151.89453125 C-37.39616927 141.85476041 -38.49900632 132.62226187 -46.7265625 125.890625 C-47.32597656 125.39949219 -47.92539063 124.90835938 -48.54296875 124.40234375 C-54.44469896 119.74794595 -60.52790699 116.70315479 -67.5390625 114.078125 C-81.34651584 108.60604672 -91.21374083 99.19714474 -97.7265625 85.890625 C-104.71005055 69.26801469 -108.69855461 50.6411117 -102.6640625 32.953125 C-101.75369282 30.90038007 -100.77784956 28.87489571 -99.7265625 26.890625 C-99.25347656 25.95992187 -98.78039062 25.02921875 -98.29296875 24.0703125 C-88.78072561 7.41795668 -72.63565728 -4.13062951 -54.5546875 -9.7890625 C-36.25623518 -14.39522464 -14.97298566 -11.58368518 0 0 Z " fill="#FDFDFD" transform="translate(176.7265625,226.109375)"/>
<path d="M0 0 C0.66 0 1.32 0 2 0 C3.08591613 1.58224899 4.0924146 3.21920412 5.0625 4.875 C11.66425382 15.47040736 19.73832437 22.97145505 30 30 C30.96292969 30.66773438 31.92585938 31.33546875 32.91796875 32.0234375 C48.60892253 42.29461811 66.29844943 47.90538696 84.09375 53.33056641 C104.65082115 59.59922145 123.67839648 65.49467248 140 80 C140.721875 80.63808594 141.44375 81.27617187 142.1875 81.93359375 C161.45562648 100.03509539 167.34469316 126.50080878 168.30859375 151.890625 C168.79918078 172.69629428 166.30044666 193.06213398 157 212 C156.34 212.66 155.68 213.32 155 214 C152.64273868 208.90357468 150.56596761 203.79329781 148.6875 198.5 C145.20831879 189.38836385 139.61623615 183.24056837 132.40625 176.82421875 C131 175 131 175 131.11328125 172.9609375 C132.06808712 170.84942849 133.07455594 169.59277855 134.6875 167.9375 C138.61077282 163.52857933 141.90296838 158.53224685 144 153 C143.75806563 149.67194779 143.75806563 149.67194779 142 147 C139.2587435 146.2444568 139.2587435 146.2444568 136 147 C133.26990673 149.34099119 131.17629559 152.1494248 129 155 C120.43253151 166.16424545 111.29082089 176.07907025 99.6875 184.125 C98.71973633 184.79873657 98.71973633 184.79873657 97.73242188 185.48608398 C91.00584615 189.96903344 84.20763997 193.0764118 76 192 C70.03583014 188.20461918 68.86979722 181.43430221 67 175 C66.34614351 171.99078874 66.34614351 171.99078874 64.4375 171 C60.98664227 169.58426349 57.50213992 168.28411797 54 167 C54.33 163.37 54.66 159.74 55 156 C52.42838542 155.77213542 49.85677083 155.54427083 47.28515625 155.31640625 C45 155 45 155 44 154 C43.67864212 152.42242496 43.39272413 150.83755714 43.125 149.25 C42.03752676 143.69441976 42.03752676 143.69441976 39 139 C33.67010807 135.82474523 28.61152976 135.53062562 22.4765625 135.2109375 C20 135 20 135 19 134 C18.76454458 128.57275261 19.29493437 123.9473732 20.5 118.625 C23.92804158 101.77296374 23.06940933 86.3182953 13.5 71.625 C12.74340194 70.51041912 11.98307993 69.39835549 11.21875 68.2890625 C8.08778775 63.6477417 5.08156253 59.0224883 3.4375 53.625 C3.20160156 52.86960938 2.96570313 52.11421875 2.72265625 51.3359375 C2.36494141 50.17964844 2.36494141 50.17964844 2 49 C1.22111856 46.71180284 0.43561495 44.4259789 -0.3515625 42.140625 C-2.5060887 35.02809272 -2.18388579 27.9318676 -2.1875 20.5625 C-2.20586914 18.59700195 -2.20586914 18.59700195 -2.22460938 16.59179688 C-2.22654297 15.32529297 -2.22847656 14.05878906 -2.23046875 12.75390625 C-2.23457764 11.60220947 -2.23868652 10.4505127 -2.24291992 9.26391602 C-1.99095328 5.87844666 -1.2082562 3.16026189 0 0 Z " fill="#FCFCFC" transform="translate(214,105)"/>
<path d="M0 0 C1.2065625 0.0309375 1.2065625 0.0309375 2.4375 0.0625 C1.86167028 7.26037144 -0.61494 11.45093402 -5.875 16.25 C-11.71527335 21.04781596 -18.15479264 23.2056511 -25.6875 23.1875 C-26.76257813 23.19007813 -27.83765625 23.19265625 -28.9453125 23.1953125 C-31.5625 23.0625 -31.5625 23.0625 -32.5625 22.0625 C-32.93863129 18.6773184 -33.10742429 16.78860471 -31.0234375 14.01171875 C-27.8884719 11.52862695 -24.6711148 10.68051319 -20.875 9.6875 C-14.06929988 7.75337015 -6.12584981 0.14941097 0 0 Z " fill="#0A0B0B" transform="translate(280.5625,178.9375)"/>
<path d="M0 0 C2.75 -0.3125 2.75 -0.3125 5 0 C6.42662219 2.85324437 6.31033868 4.83454549 6 8 C3.42854754 12.25278675 0.65834812 14.33002615 -4 16 C-11.59174964 16.70412518 -11.59174964 16.70412518 -15 15 C-14.80078125 12.65625 -14.80078125 12.65625 -14 10 C-11.85546875 8.59375 -11.85546875 8.59375 -9.1875 7.5 C-4.8743939 5.57013008 -2.89573918 3.75373597 0 0 Z " fill="#121212" transform="translate(185,267)"/>
<path d="M0 0 C0.66 0.33 1.32 0.66 2 1 C1.67 1.33 1.34 1.66 1 2 C1.66 2.66 2.32 3.32 3 4 C0.2328864 5.03205859 -2.53791254 6.05090829 -5.3125 7.0625 C-6.49102539 7.50432617 -6.49102539 7.50432617 -7.69335938 7.95507812 C-8.45068359 8.22900391 -9.20800781 8.50292969 -9.98828125 8.78515625 C-10.68477783 9.04176025 -11.38127441 9.29836426 -12.09887695 9.56274414 C-14 10 -14 10 -17 9 C-14.21526125 7.46621464 -11.42121662 5.9502442 -8.625 4.4375 C-7.8309375 3.99986328 -7.036875 3.56222656 -6.21875 3.11132812 C-5.45820313 2.70205078 -4.69765625 2.29277344 -3.9140625 1.87109375 C-2.8614624 1.29766235 -2.8614624 1.29766235 -1.78759766 0.71264648 C-1.19769043 0.47747314 -0.6077832 0.2422998 0 0 Z " fill="#C0C0C0" transform="translate(333,465)"/>
<path d="M0 0 C0.66 0.33 1.32 0.66 2 1 C1.3125 3.875 1.3125 3.875 0 7 C-2.625 8.375 -2.625 8.375 -5 9 C-3.7508258 5.54074837 -2.32472205 2.85306797 0 0 Z " fill="#BDBDBD" transform="translate(201,95)"/>
<path d="M0 0 C2.60018816 3.90028225 2.15085514 7.47434569 2 12 C1.67 12 1.34 12 1 12 C1 10.02 1 8.04 1 6 C0.34 6 -0.32 6 -1 6 C-0.67 4.02 -0.34 2.04 0 0 Z " fill="#CBCBCB" transform="translate(421,275)"/>
</svg>
